Format                                   : MPEG-4
Format profile                           : Base Media
Codec ID                                 : isom
File size                                : 460 MiB
Duration                                 : 59mn 52s
Overall bit rate mode                    : Variable
Overall bit rate                         : 1 073 Kbps
Writing application                      : Lavf54.29.104

Video
ID                                       : 1
Format                                   : AVC
Format/Info                              : Advanced Video Codec
Format profile                           : High@L3.1
Format settings, CABAC                   : Yes
Format settings, ReFrames                : 2 frames
Codec ID                                 : avc1
Codec ID/Info                            : Advanced Video Coding
Duration                                 : 59mn 52s
Bit rate                                 : 937 Kbps
Nominal bit rate                         : 1 875 Kbps
Width                                    : 720 pixels
Height                                   : 404 pixels
Display aspect ratio                     : 16:9
Frame rate mode                          : Variable
Frame rate                               : 29.970 fps
Original frame rate                      : 59.940 fps
Minimum frame rate                       : 6.993 fps
Maximum frame rate                       : 59.941 fps
Color space                              : YUV
Chroma subsampling                       : 4:2:0
Bit depth                                : 8 bits
Scan type                                : Progressive
Bits/(Pixel*Frame)                       : 0.108
Stream size                              : 401 MiB (87%)
Writing library                          : x264 core 129 r2230 1cffe9f
Encoding settings                        : cabac=1 / ref=2 / deblock=0:0:0 / analyse=0x3:0x113 / me=dia / subme=7 / psy=1 / psy_rd=0.00:0.00 / mixed_ref=0 / me_range=16 / chroma_me=0 / trellis=1 / 8x8dct=1 / cqm=0 / deadzone=21,21 / fast_pskip=1 / chroma_qp_offset=0 / threads=12 / lookahead_threads=2 / sliced_threads=0 / nr=0 / decimate=0 / interlaced=0 / bluray_compat=0 / constrained_intra=0 / bframes=2 / b_pyramid=0 / b_adapt=0 / b_bias=0 / direct=0 / weightb=0 / open_gop=0 / weightp=0 / keyint=500 / keyint_min=100 / scenecut=40 / intra_refresh=0 / rc=2pass / mbtree=0 / bitrate=1875 / ratetol=1.0 / qcomp=0.60 / qpmin=0 / qpmax=69 / qpstep=4 / cplxblur=20.0 / qblur=0.5 / ip_ratio=1.40 / pb_ratio=1.30 / aq=0

Audio
ID                                       : 2
Format                                   : AAC
Format/Info                              : Advanced Audio Codec
Format profile                           : LC
Codec ID                                 : 40
Duration                                 : 59mn 52s
Bit rate mode                            : Variable
Bit rate                                 : 125 Kbps
Maximum bit rate                         : 128 Kbps
Channel(s)                               : 2 channels
Channel positions                        : Front: L R
Sampling rate                            : 48.0 KHz
Compression mode                         : Lossy
Stream size                              : 53.3 MiB (12%)
